<?xml version="1.0" encoding="utf-8"?>
<!-- Generator: Adobe Illustrator 16.0.0, SVG Export Plug-In . SVG Version: 6.00 Build 0)  -->
<!DOCTYPE svg PUBLIC "-//W3C//DTD SVG 1.1//EN" "http://www.w3.org/Graphics/SVG/1.1/DTD/svg11.dtd">
<svg version="1.1" id="Layer_1" xmlns="http://www.w3.org/2000/svg" xmlns:xlink="http://www.w3.org/1999/xlink" x="0px" y="0px"
	 width="500px" height="500px" viewBox="0 0 500 500" enable-background="new 0 0 500 500" xml:space="preserve">
<path fill-rule="evenodd" clip-rule="evenodd" fill="#31708F" d="M271.957,162.472c-18.637,0-33.77-15.114-33.77-33.805
	c0-18.654,15.133-33.806,33.77-33.806c18.652,0,33.768,15.151,33.768,33.806C305.725,147.357,290.609,162.472,271.957,162.472z
	 M295.365,362.355l-0.184,0.222c-32.295,35.316-54.947,44.644-70.119,44.901h-0.092c-5.16,0-10.414-1.364-14.303-5.566
	c-3.871-4.203-5.918-10.654-5.918-19.834c0-7.041,1.18-22.229,3.816-33.216l23.17-99.904c1.105-5.566,1.732-9.512,1.732-11.539
	c-4.018,1.475-26.561,15.041-29.916,16.553c-3.355,1.549-5.363,1.069-5.363,1.069c-6.84-0.037-12.369-5.604-12.369-12.461
	c0-3.724,1.732-7.004,4.332-9.327l-0.055-0.073l1.732-1.659c39.113-30.709,59.832-43.611,77.803-43.869
	c5.125-0.111,9.623,2.543,12.02,6.856c2.469,4.093,3.428,9.548,3.428,16.11c0,7.115-1.18,21.972-3.428,31.631l-25.4,103.554
	c-1.254,5.051-1.678,8.627-1.678,10.986c-0.055,1.29,0.146,2.101,0.295,2.507c2.709-0.332,23.797-16.11,25.346-16.922
	c3.723-1.88,7.004-1.843,7.004-1.843c0.037,0,0.074-0.037,0.074-0.037c6.93,0,12.533,5.567,12.533,12.497
	C299.826,356.789,298.057,360.033,295.365,362.355z M446.477,136.593c-20.166-34.58-47.889-62.339-82.432-82.541
	s-72.846-30.488-113.691-30.488c-40.885,0-79.15,10.286-113.711,30.488c-34.506,20.202-62.229,47.961-82.395,82.541
	c-20.184,34.616-30.395,72.956-30.395,113.877c0,40.957,10.211,79.334,30.395,113.913c20.166,34.58,47.889,62.339,82.395,82.542
	c34.561,20.201,72.826,30.45,113.711,30.45c40.883,0,79.186-10.249,113.691-30.45c34.543-20.203,62.266-47.962,82.432-82.542
	c20.201-34.579,30.377-72.956,30.377-113.913C476.854,209.549,466.678,171.209,446.477,136.593z"/>
</svg>
