<?xml version="1.0" encoding="utf-8"?>
<!-- Generator: Adobe Illustrator 15.0.2, SVG Export Plug-In . SVG Version: 6.00 Build 0)  -->
<!DOCTYPE svg PUBLIC "-//W3C//DTD SVG 1.1//EN" "http://www.w3.org/Graphics/SVG/1.1/DTD/svg11.dtd">
<svg version="1.1" id="Layer_1" xmlns="http://www.w3.org/2000/svg" xmlns:xlink="http://www.w3.org/1999/xlink" x="0px" y="0px"
	 width="500px" height="500px" viewBox="0 0 500 500" enable-background="new 0 0 500 500" xml:space="preserve">
<g>
	<g>
		<path fill="#FFFFFF" d="M431.527,127.217c0,10.003-8.289,18.291-18.291,18.291H80.897c-10.003,0-18.291-8.288-18.291-18.291
			V90.635c0-10.003,8.288-18.291,18.291-18.291h332.339c10.003,0,18.291,8.288,18.291,18.291V127.217L431.527,127.217z
			 M431.527,273.545c0,10.003-8.289,18.291-18.291,18.291H80.897c-10.003,0-18.291-8.288-18.291-18.291v-36.582
			c0-10.003,8.288-18.291,18.291-18.291h332.339c10.003,0,18.291,8.288,18.291,18.291V273.545L431.527,273.545z M431.527,419.873
			c0,10.003-8.289,18.291-18.291,18.291H80.897c-10.003,0-18.291-8.288-18.291-18.291v-36.582c0-10.003,8.288-18.291,18.291-18.291
			h332.339c10.003,0,18.291,8.288,18.291,18.291V419.873L431.527,419.873z"/>
	</g>
	<circle fill="#FFFFFF" cx="79.404" cy="108.807" r="36.464"/>
	<circle fill="#FFFFFF" cx="415.403" cy="108.807" r="36.464"/>
	<circle fill="#FFFFFF" cx="79.404" cy="255.254" r="36.464"/>
	<circle fill="#FFFFFF" cx="415.403" cy="255.254" r="36.464"/>
	<circle fill="#FFFFFF" cx="79.404" cy="401.807" r="36.464"/>
	<circle fill="#FFFFFF" cx="415.403" cy="401.807" r="36.464"/>
</g>
</svg>
