<?xml version="1.0" encoding="utf-8"?>
<!-- Generator: Adobe Illustrator 15.0.2, SVG Export Plug-In . SVG Version: 6.00 Build 0)  -->
<!DOCTYPE svg PUBLIC "-//W3C//DTD SVG 1.1//EN" "http://www.w3.org/Graphics/SVG/1.1/DTD/svg11.dtd">
<svg version="1.1" id="Layer_1" xmlns="http://www.w3.org/2000/svg" xmlns:xlink="http://www.w3.org/1999/xlink" x="0px" y="0px"
	 width="500px" height="500px" viewBox="0 0 500 500" enable-background="new 0 0 500 500" xml:space="preserve">
<g>
	<g>
		<path fill="#7D7D7D" d="M258.127,229.219h102.787v-31.376H258.127V229.219z M147.781,313.754h213.092v-31.377H147.781V313.754z
			 M147.781,398.123h213.092v-31.377H147.781V398.123z M321.004,19.657v-0.291H80.584v460.406h338.099V115.799L321.004,19.657z
			 M379.811,441.396H119.457V57.74h162.674v96.455h97.68V441.396L379.811,441.396z M183.331,176.039v39.059
			c-12.293-1.412-25.832-9.157-27.036-9.157l-1.828,1.599l-5.855,16.736l-0.416,1.786c0,5.959,28.282,10.548,35.135,10.548v8.971
			c0,3.364,0.623,4.008,4.236,4.008h4.07c3.613,0,4.194-0.644,4.194-4.008v-8.971c13.332-2.18,35.342-11.337,35.342-39.038
			c0-25.521-22.177-34.097-35.342-40.451v-36.858c8.68,0,21.845,7.974,23.049,7.974l1.828-1.62l6.229-13.539l0.623-2.201
			c0-6.749-25.832-11.171-31.729-11.566v-9.739c0-3.405-0.582-4.007-4.194-4.007h-4.07c-3.613,0-4.236,0.602-4.236,4.007v9.739
			c-9.303,0.395-35.508,8.784-35.508,38.062C147.822,163.705,171.038,170.661,183.331,176.039z M194.46,180.628
			c4.61,2.388,13.498,6.562,13.498,18.148c0,10.922-7.683,14.743-13.498,16.321V180.628z M184.743,120.264v32.477
			c-4.444-1.994-13.705-6.188-13.705-16.944C171.038,124.022,180.714,121.219,184.743,120.264z"/>
	</g>
</g>
</svg>
