<?xml version="1.0" encoding="utf-8"?>
<!-- Generator: Adobe Illustrator 15.0.2, SVG Export Plug-In . SVG Version: 6.00 Build 0)  -->
<!DOCTYPE svg PUBLIC "-//W3C//DTD SVG 1.1//EN" "http://www.w3.org/Graphics/SVG/1.1/DTD/svg11.dtd">
<svg version="1.1" id="Layer_1" xmlns="http://www.w3.org/2000/svg" xmlns:xlink="http://www.w3.org/1999/xlink" x="0px" y="0px"
	 width="500px" height="500px" viewBox="0 0 500 500" enable-background="new 0 0 500 500" xml:space="preserve">
<g>
	<path fill="#333333" d="M388.785,166.9l-15.848-15.848l-63.04-63.042c-2.091-2.089-4.878-3.135-7.836-3.135
		c-2.962,0-5.748,1.045-7.838,3.135l-15.848,15.848c-2.091,2.091-3.134,4.875-3.134,7.837c0,2.961,1.043,5.748,3.134,7.836
		l32.913,32.915h-179.05c-6.095,0-11.146,5.05-11.146,11.146v22.291c0,6.096,5.05,11.146,11.146,11.146h179.05l-32.913,32.913
		c-2.091,2.091-3.309,4.876-3.309,7.837c0,2.96,1.218,5.747,3.309,7.837l15.848,15.848c2.09,2.091,4.876,3.134,7.838,3.134
		c2.958,0,5.745-1.043,7.836-3.134l63.04-63.041l15.848-15.847c2.089-2.091,3.135-4.876,3.135-7.837
		C391.92,171.776,390.874,168.989,388.785,166.9z"/>
</g>
<circle fill="#333333" cx="131.512" cy="174.735" r="22.131"/>
<circle fill="#333333" cx="293.347" cy="103.068" r="22.131"/>
<circle fill="#333333" cx="293.347" cy="246.068" r="22.131"/>
<g>
	<g>
		<path fill="#333333" d="M109.382,316.675c0,2.961,1.046,5.746,3.135,7.838l15.848,15.847l63.04,63.041
			c2.091,2.091,4.878,3.134,7.836,3.134c2.962,0,5.748-1.043,7.838-3.134l15.848-15.848c2.091-2.09,3.309-4.877,3.309-7.837
			c0-2.961-1.218-5.746-3.309-7.837l-32.913-32.913h179.05c6.096,0,11.146-5.05,11.146-11.146v-22.29
			c0-6.096-5.05-11.146-11.146-11.146h-179.05l32.913-32.914c2.091-2.089,3.134-4.876,3.134-7.837c0-2.962-1.043-5.746-3.134-7.837
			l-15.848-15.849c-2.09-2.09-4.876-3.135-7.838-3.135c-2.958,0-5.745,1.045-7.836,3.135l-63.04,63.043l-15.848,15.849
			C110.428,310.928,109.382,313.714,109.382,316.675z"/>
	</g>
	<circle fill="#333333" cx="369.789" cy="316.673" r="22.131"/>
	<circle fill="#333333" cx="207.955" cy="245.006" r="22.131"/>
	<circle fill="#333333" cx="207.955" cy="388.007" r="22.131"/>
</g>
</svg>
