<?xml version="1.0" encoding="utf-8"?>
<!-- Generator: Adobe Illustrator 16.0.0, SVG Export Plug-In . SVG Version: 6.00 Build 0)  -->
<!DOCTYPE svg PUBLIC "-//W3C//DTD SVG 1.1//EN" "http://www.w3.org/Graphics/SVG/1.1/DTD/svg11.dtd">
<svg version="1.1" id="Layer_1" xmlns="http://www.w3.org/2000/svg" xmlns:xlink="http://www.w3.org/1999/xlink" x="0px" y="0px"
	 width="19px" height="20.5px" viewBox="0 0 19 20.5" enable-background="new 0 0 19 20.5" xml:space="preserve">
<g>
	<g>
		<path fill-rule="evenodd" clip-rule="evenodd" fill="#989898" d="M16.318,16.509l-3.959-3.956
			c0.828-0.991,1.326-2.265,1.326-3.657c0-3.156-2.556-5.713-5.713-5.713c-3.154,0-5.71,2.558-5.71,5.713
			c0,3.154,2.557,5.71,5.71,5.71c1.352,0,2.591-0.471,3.569-1.254l3.969,3.965L16.318,16.509z M7.972,13.541
			c-2.567,0-4.645-2.079-4.645-4.645c0-2.565,2.078-4.649,4.645-4.649c2.567,0,4.648,2.083,4.648,4.649
			C12.62,11.462,10.539,13.541,7.972,13.541z"/>
	</g>
</g>
</svg>
