<?xml version="1.0" encoding="utf-8"?>
<!-- Generator: Adobe Illustrator 16.0.4, SVG Export Plug-In . SVG Version: 6.00 Build 0)  -->
<!DOCTYPE svg PUBLIC "-//W3C//DTD SVG 1.1//EN" "http://www.w3.org/Graphics/SVG/1.1/DTD/svg11.dtd">
<svg version="1.1" id="Layer_1" xmlns="http://www.w3.org/2000/svg" xmlns:xlink="http://www.w3.org/1999/xlink" x="0px" y="0px"
	 width="500px" height="500px" viewBox="0 0 500 500" enable-background="new 0 0 500 500" xml:space="preserve">
<path fill="#A94442" d="M338.719,305.098l-30.669-30.705l0,0l-28.799-28.796c4.263-4.263,15.699-15.665,27.413-27.377
	c15.523-15.526,31.533-31.536,32.09-32.126c4.124-4.089,6.411-9.565,6.376-15.387c0-5.822-2.252-11.262-6.376-15.386
	c-8.145-8.145-22.006-7.867-30.324,0.485l-30.425,30.288v-0.035l-29.182,29.145c-9.494-9.46-58.775-58.705-59.572-59.468
	c-8.248-8.212-22.593-8.212-30.808,0c-8.387,8.352-8.178,21.695,0.484,30.323c0.832,0.867,50.008,50.042,59.47,59.538
	c-9.6,9.564-59.123,59.05-59.538,59.466c-4.125,4.09-6.378,9.564-6.378,15.388s2.253,11.297,6.378,15.422
	c3.985,3.949,9.183,6.134,14.728,6.134c5.822,0,11.366-2.356,15.63-6.619c0.97-0.937,41.863-41.726,56.349-56.176l3.256-3.225
	c4.229,4.229,15.528,15.492,27.413,27.344l17.57,17.57c8.178,8.145,14.174,14.175,14.557,14.557
	c4.088,4.088,9.599,6.376,15.42,6.376c5.82,0,11.299-2.288,15.423-6.376C347.557,327.067,347.383,313.727,338.719,305.098z
	 M433.152,138.927c-18.92-32.438-45.016-58.429-77.418-77.351c-32.506-18.955-68.514-28.555-106.911-28.555
	c-38.396,0-74.402,9.6-106.909,28.555c-32.437,18.922-58.498,44.913-77.454,77.351c-18.958,32.472-28.556,68.374-28.556,106.772
	s9.599,74.335,28.556,106.771c18.956,32.402,45.017,58.396,77.454,77.351c32.472,18.923,68.479,28.558,106.909,28.558
	c38.434,0,74.405-9.635,106.911-28.558c32.402-18.955,58.498-44.947,77.418-77.351c18.959-32.436,28.592-68.372,28.592-106.771
	S452.111,171.399,433.152,138.927z"/>
<path fill="#FFFFFF" d="M310.05,274.393l-28.799-28.796c4.263-4.263,15.699-15.665,27.413-27.377
	c15.523-15.526,31.533-31.536,32.09-32.126c4.124-4.089,6.411-9.565,6.376-15.387c0-5.822-2.252-11.262-6.376-15.386
	c-8.145-8.145-22.006-7.867-30.324,0.485l-30.425,30.288v-0.035l-29.183,29.145c-9.493-9.46-58.774-58.705-59.571-59.468
	c-8.248-8.212-22.593-8.212-30.808,0c-8.387,8.352-8.178,21.695,0.484,30.323c0.832,0.867,50.008,50.042,59.47,59.538
	c-9.6,9.564-59.123,59.05-59.538,59.466c-4.125,4.09-6.378,9.564-6.378,15.388s2.253,11.297,6.378,15.422
	c3.985,3.949,9.183,6.134,14.728,6.134c5.822,0,11.366-2.356,15.63-6.619c0.97-0.937,41.863-41.726,56.35-56.176l3.256-3.225
	c4.229,4.229,15.527,15.492,27.412,27.344l17.57,17.57c8.178,8.145,14.174,14.175,14.557,14.557
	c4.088,4.088,9.599,6.376,15.42,6.376c5.82,0,11.299-2.288,15.423-6.376c8.353-8.39,8.179-21.73-0.485-30.359L310.05,274.393z"/>
</svg>
