<?xml version="1.0" encoding="utf-8"?>
<!-- Generator: Adobe Illustrator 15.0.2, SVG Export Plug-In . SVG Version: 6.00 Build 0)  -->
<!DOCTYPE svg PUBLIC "-//W3C//DTD SVG 1.1//EN" "http://www.w3.org/Graphics/SVG/1.1/DTD/svg11.dtd">
<svg version="1.1" id="Layer_1" xmlns="http://www.w3.org/2000/svg" xmlns:xlink="http://www.w3.org/1999/xlink" x="0px" y="0px"
	 width="80px" height="80px" viewBox="0 0 80 80" enable-background="new 0 0 80 80" xml:space="preserve">
<g display="none">
	<path display="inline" d="M40.376,2.527c-0.14,0-0.243-0.007-0.38-0.004c-0.114-0.002-0.26,0.007-0.375,0.007
		c-11.28,0-20.421,9.265-20.421,20.424c0,11.161,20.802,54.522,20.802,54.522s20.799-43.402,20.799-54.525
		C60.801,11.827,51.652,2.527,40.376,2.527z M39.949,30.509c-5.165,0-9.354-4.188-9.354-9.355c0-5.162,4.189-9.355,9.354-9.355
		c5.17,0,9.355,4.193,9.355,9.355C49.307,26.322,45.119,30.509,39.949,30.509z"/>
</g>
<path display="none" d="M39.999,2.523c-20.694,0-37.476,16.776-37.476,37.472c0,20.704,16.781,37.481,37.476,37.481
	c20.7,0,37.478-16.777,37.478-37.481C77.477,19.299,60.698,2.523,39.999,2.523z M63.939,30.129L37.628,56.495
	c-0.755,0.765-2.254,1.381-3.326,1.381h-2.273c-1.072,0-2.571-0.622-3.326-1.381l-12.39-12.44c-0.756-0.763-0.756-2.004,0-2.768
	l4.875-4.874c0.762-0.758,2.002-0.758,2.763,0l7.913,7.897c0.761,0.758,2.004,0.758,2.761,0L56.32,22.56
	c0.764-0.758,1.996-0.758,2.761-0.006l4.849,4.82C64.691,28.126,64.691,29.365,63.939,30.129z"/>
<g display="none">
	<path display="inline" d="M39.911,3.079c0,0,8.682,3.527,17.003,3.527c8.314,0,18.689-2.701,18.689-2.701s1.873,6.006,1.873,14.95
		c0,23.228-7.479,37.833-17.555,46.125c-6.081,5.008-15.958,11.941-20.013,11.941c-4.053,0-13.854-6.919-19.889-11.886
		C9.962,56.766,2.52,42.081,2.52,18.853c0-9.088,1.874-14.95,1.874-14.95s10.194,2.701,18.692,2.701
		C31.591,6.606,39.911,3.079,39.911,3.079 M12.246,26.487c1.215,14.105,5.907,24.838,13.752,31.292
		c5.979,4.916,11.406,8.339,13.912,9.47c2.529-1.144,8.1-4.644,14.041-9.531c7.867-6.478,12.586-17.221,13.809-31.262L12.246,26.487
		z"/>
</g>
<g display="none">
	<g display="inline">
		<path d="M29.508,21.43v7.054h33.244V21.43H29.508z M29.508,43.479h33.244v-7.053H29.508V43.479z M29.508,58.57h33.244V51.51
			H29.508V58.57z M20.895,21.43c-2.02,0-3.648,1.573-3.648,3.519c0,1.946,1.629,3.519,3.648,3.519c2.011,0,3.643-1.573,3.643-3.519
			C24.538,23.002,22.906,21.43,20.895,21.43z M20.895,36.409c-2.02,0-3.648,1.573-3.648,3.519c0,1.946,1.629,3.523,3.648,3.523
			c2.011,0,3.643-1.577,3.643-3.523C24.538,37.982,22.906,36.409,20.895,36.409z M20.895,51.461c-2.02,0-3.648,1.578-3.648,3.52
			c0,1.945,1.629,3.52,3.648,3.52c2.011,0,3.643-1.572,3.643-3.52C24.538,53.039,22.906,51.461,20.895,51.461z"/>
	</g>
</g>
<g display="none">
	<polygon display="inline" points="44.011,43.156 59.518,29.749 44.011,16.344 44.011,26.402 29.198,26.402 29.198,33.1 
		44.011,33.1 	"/>
	<path display="inline" d="M23.564,25.803h-3.321c-1.57,0-2.84,1.273-2.84,2.842v1.183c0,1.575,1.27,2.845,2.84,2.845h3.321V25.803z
		"/>
	<polygon display="inline" points="35.992,36.839 20.481,50.25 35.992,63.657 35.992,53.6 50.799,53.6 50.799,46.9 35.992,46.9 	"/>
	<path display="inline" d="M56.434,54.199h3.32c1.572,0,2.846-1.273,2.846-2.846V50.17c0-1.572-1.271-2.845-2.846-2.845h-3.32
		V54.199z"/>
</g>
<path display="none" d="M40,16.778c-12.827,0-23.222,10.397-23.222,23.225c0,12.821,10.395,23.22,23.222,23.22
	c12.824,0,23.223-10.396,23.223-23.22C63.223,27.176,52.824,16.778,40,16.778z M35.319,57.129c-1.884,0-3.19-0.888-3.19-2.873
	c0-2.512,1.779-6.8,2.147-7.688l3.66-9.209c0.368-0.942-0.104-1.412-0.526-1.412c-1.935,0-4.446,4.551-5.385,4.551
	c-0.368,0-0.682-0.371-0.682-0.679c0-0.942,2.299-3.139,2.984-3.821c2.093-1.989,4.814-3.502,7.843-3.502
	c2.255,0,4.659,1.358,2.775,6.432L41.18,49.13c-0.32,0.787-0.891,2.095-0.891,2.931c0,0.362,0.209,0.729,0.625,0.729
	c1.57,0,4.449-4.446,5.179-4.446c0.261,0,0.634,0.317,0.634,0.786C46.727,50.646,40.6,57.129,35.319,57.129z M44.316,30.612
	c-2.147,0-3.561-1.414-3.561-3.558c0-2.302,1.985-4.183,4.288-4.183c2.095,0,3.608,1.411,3.608,3.558
	C48.654,28.836,46.67,30.612,44.316,30.612z"/>
<g display="none">
	<g display="inline">
		<path d="M52.632,27.739c-1.272-1.143-3.225-1.035-4.36,0.249c-1.138,1.281-1.023,3.244,0.248,4.39
			c2.638,2.367,4.282,5.778,4.282,9.608c-0.012,7.111-5.729,12.869-12.803,12.875c-7.068-0.006-12.79-5.764-12.801-12.875
			c0-3.844,1.666-7.271,4.322-9.644c1.275-1.137,1.392-3.103,0.26-4.387c-1.132-1.284-3.083-1.4-4.359-0.266
			c-3.92,3.491-6.406,8.616-6.403,14.294c0.002,10.552,8.499,19.099,18.981,19.099c10.49,0,18.979-8.547,18.985-19.099
			C58.984,36.329,56.523,31.224,52.632,27.739z M40.055,45.137c1.708,0,3.089-1.392,3.089-3.106v-20c0-1.72-1.381-3.111-3.089-3.111
			c-1.708,0-3.089,1.392-3.089,3.111v20C36.966,43.745,38.347,45.137,40.055,45.137z"/>
	</g>
</g>
<g>
	<path fill="#333333" d="M70.131,64.819c-0.949,2.215-3.479,3.661-5.514,4.791c-2.667,1.446-5.378,2.305-8.406,2.305
		c-4.204,0-8-1.718-11.842-3.118c-2.757-0.995-5.424-2.215-7.909-3.752C28.776,60.3,19.511,51.034,14.766,43.351
		c-1.537-2.485-2.757-5.152-3.751-7.909C9.613,31.6,7.896,27.803,7.896,23.6c0-3.028,0.859-5.74,2.305-8.407
		c1.13-2.034,2.576-4.565,4.791-5.514c1.492-0.678,4.655-1.401,6.282-1.401c0.316,0,0.633,0,0.949,0.136
		c0.949,0.316,1.943,2.531,2.396,3.435c1.446,2.576,2.848,5.198,4.339,7.729c0.723,1.175,2.079,2.621,2.079,4.022
		c0,2.757-8.181,6.779-8.181,9.22c0,1.221,1.13,2.802,1.763,3.887c4.565,8.226,10.26,13.921,18.485,18.485
		c1.085,0.633,2.666,1.763,3.887,1.763c2.44,0,6.464-8.181,9.221-8.181c1.4,0,2.847,1.355,4.022,2.079
		c2.53,1.491,5.152,2.893,7.729,4.339c0.903,0.452,3.118,1.446,3.435,2.396c0.136,0.316,0.136,0.633,0.136,0.949
		C71.532,60.164,70.81,63.328,70.131,64.819z"/>
</g>
</svg>
