<?xml version="1.0" encoding="utf-8"?>
<!-- Generator: Adobe Illustrator 16.0.0, SVG Export Plug-In . SVG Version: 6.00 Build 0)  -->
<!DOCTYPE svg PUBLIC "-//W3C//DTD SVG 1.1//EN" "http://www.w3.org/Graphics/SVG/1.1/DTD/svg11.dtd">
<svg version="1.1" id="Layer_1" xmlns="http://www.w3.org/2000/svg" xmlns:xlink="http://www.w3.org/1999/xlink" x="0px" y="0px"
	 width="80px" height="80px" viewBox="0 0 80 80" enable-background="new 0 0 80 80" xml:space="preserve">
<g display="none">
	<path display="inline" d="M61.18,36.046c0-11.665-9.459-21.128-21.125-21.128c-11.667,0-21.128,9.464-21.128,21.128
		c0,5.895,2.417,11.218,6.312,15.053c1.003-1.872,2.356-3.529,3.97-4.893c-2.496-2.665-4.038-6.229-4.038-10.16
		c0-8.203,6.678-14.883,14.885-14.883c8.204,0,14.884,6.681,14.884,14.883c0,3.903-1.521,7.45-3.987,10.108
		c1.617,1.353,2.98,3.01,3.993,4.877C58.792,47.207,61.18,41.906,61.18,36.046z"/>
	<path display="inline" d="M73.568,36.085c0-18.538-15.03-33.562-33.568-33.562c-18.535,0-33.566,15.025-33.566,33.562
		c0,12.937,7.323,24.155,18.04,29.761c-0.72-2.857-1.201-5.386-1.201-6.924c0-0.289,0.03-0.572,0.045-0.86
		c-6.633-5.046-10.922-13.017-10.922-21.977C12.396,20.869,24.779,8.482,40,8.482c15.223,0,27.605,12.386,27.605,27.603
		c0,8.87-4.203,16.767-10.72,21.819c0.022,0.339,0.051,0.673,0.051,1.019c0,1.516-0.464,3.999-1.171,6.799
		C66.355,60.076,73.568,48.927,73.568,36.085z"/>
	<path display="inline" d="M34.49,77.477h11.229c2.461-5.922,5.272-15.901,5.272-18.554c0-5.821-4.785-10.687-10.687-10.687
		c-0.058,0-0.106,0-0.16,0c-0.013,0-0.024,0-0.041,0c-0.004,0-0.011,0-0.021,0c-0.054,0-0.12,0-0.174,0
		c-5.902,0-10.685,4.849-10.685,10.687C29.224,61.581,32.031,71.555,34.49,77.477z"/>
	<path display="inline" d="M47.897,36.105c0-4.348-3.524-7.877-7.874-7.877c-4.352,0-7.875,3.53-7.875,7.877
		c0,2.831,1.498,5.306,3.739,6.694c1.204,0.744,2.617,1.183,4.137,1.183c1.541,0,2.974-0.452,4.185-1.213
		C46.421,41.375,47.897,38.914,47.897,36.105z"/>
</g>
<g display="none">
	<path display="inline" d="M40.376,2.527c-0.14,0-0.243-0.007-0.38-0.004c-0.114-0.002-0.26,0.007-0.375,0.007
		c-11.28,0-20.421,9.265-20.421,20.424c0,11.161,20.802,54.522,20.802,54.522s20.799-43.402,20.799-54.525
		C60.801,11.827,51.653,2.527,40.376,2.527z M39.949,30.509c-5.165,0-9.354-4.188-9.354-9.355c0-5.162,4.189-9.355,9.354-9.355
		c5.17,0,9.356,4.193,9.356,9.355C49.306,26.322,45.119,30.509,39.949,30.509z"/>
</g>
<path display="none" d="M39.999,2.523c-20.694,0-37.476,16.776-37.476,37.472c0,20.704,16.781,37.482,37.476,37.482
	c20.7,0,37.478-16.778,37.478-37.482C77.477,19.299,60.698,2.523,39.999,2.523z M63.94,30.129L37.628,56.495
	c-0.755,0.765-2.254,1.381-3.326,1.381h-2.273c-1.072,0-2.571-0.622-3.326-1.381l-12.39-12.441c-0.756-0.762-0.756-2.003,0-2.767
	l4.875-4.874c0.762-0.758,2.002-0.758,2.763,0l7.913,7.897c0.761,0.758,2.004,0.758,2.761,0L56.32,22.56
	c0.764-0.758,1.997-0.758,2.761-0.006l4.848,4.82C64.692,28.126,64.692,29.365,63.94,30.129z"/>
<g display="none">
	<path display="inline" d="M39.911,3.079c0,0,8.682,3.527,17.003,3.527c8.315,0,18.69-2.701,18.69-2.701s1.872,6.006,1.872,14.95
		c0,23.228-7.478,37.833-17.553,46.126c-6.081,5.007-15.958,11.942-20.013,11.942c-4.053,0-13.854-6.919-19.889-11.886
		c-10.058-8.27-17.5-22.955-17.5-46.183c0-9.088,1.874-14.95,1.874-14.95s10.194,2.701,18.692,2.701
		C31.591,6.606,39.911,3.079,39.911,3.079 M12.246,26.487c1.215,14.105,5.907,24.838,13.752,31.292
		c5.979,4.916,11.406,8.339,13.912,9.47c2.529-1.143,8.1-4.644,14.041-9.531c7.868-6.478,12.586-17.221,13.809-31.262L12.246,26.487
		z"/>
</g>
<g display="none">
	<g display="inline">
		<path d="M23.15,10.177v11.329h53.387V10.177H23.15z M23.15,45.587h53.387V34.261H23.15V45.587z M23.15,69.823h53.387V58.486H23.15
			V69.823z M9.319,10.177c-3.243,0-5.859,2.526-5.859,5.651c0,3.125,2.616,5.651,5.859,5.651c3.23,0,5.851-2.525,5.851-5.651
			C15.17,12.703,12.549,10.177,9.319,10.177z M9.319,34.233c-3.243,0-5.859,2.526-5.859,5.65c0,3.125,2.616,5.659,5.859,5.659
			c3.23,0,5.851-2.533,5.851-5.659C15.17,36.759,12.549,34.233,9.319,34.233z M9.319,58.404c-3.243,0-5.859,2.535-5.859,5.65
			c0,3.126,2.616,5.651,5.859,5.651c3.23,0,5.851-2.525,5.851-5.651C15.17,60.939,12.549,58.404,9.319,58.404z"/>
	</g>
</g>
<g display="none">
	<polygon display="inline" points="46.44,45.068 71.342,23.537 46.44,2.011 46.44,18.163 22.653,18.163 22.653,28.919 46.44,28.919 
			"/>
	<path display="inline" d="M13.605,17.2H8.272c-2.521,0-4.561,2.044-4.561,4.564v1.899c0,2.53,2.04,4.569,4.561,4.569h5.333V17.2z"
		/>
	<polygon display="inline" points="33.564,34.924 8.654,56.46 33.564,77.99 33.564,61.839 57.342,61.839 57.342,51.082 
		33.564,51.082 	"/>
	<path display="inline" d="M66.391,62.802h5.332c2.525,0,4.57-2.045,4.57-4.569v-1.899c0-2.524-2.045-4.568-4.57-4.568h-5.332
		V62.802z"/>
</g>
<path fill-rule="evenodd" clip-rule="evenodd" d="M40,2.708c-20.599,0-37.292,16.697-37.292,37.296
	c0,20.589,16.692,37.287,37.292,37.287c20.595,0,37.292-16.697,37.292-37.287C77.292,19.405,60.595,2.708,40,2.708z M32.482,67.507
	c-3.025,0-5.124-1.426-5.124-4.614c0-4.033,2.857-10.919,3.448-12.347l5.877-14.789c0.59-1.513-0.168-2.267-0.845-2.267
	c-3.106,0-7.14,7.309-8.648,7.309c-0.591,0-1.095-0.595-1.095-1.091c0-1.512,3.692-5.041,4.792-6.136
	c3.361-3.194,7.731-5.624,12.595-5.624c3.621,0,7.481,2.181,4.457,10.329l-6.046,16.383c-0.514,1.264-1.431,3.362-1.431,4.706
	c0,0.582,0.336,1.172,1.003,1.172c2.521,0,7.145-7.141,8.317-7.141c0.417,0,1.017,0.51,1.017,1.263
	C50.801,57.097,40.963,67.507,32.482,67.507z M46.932,24.924c-3.448,0-5.715-2.271-5.715-5.714c0-3.697,3.188-6.718,6.887-6.718
	c3.36,0,5.796,2.266,5.796,5.714C53.899,22.071,50.711,24.924,46.932,24.924z"/>
<g display="none">
	<g display="inline">
		<path d="M60.285,20.309c-2.043-1.834-5.178-1.662-7.004,0.4c-1.825,2.058-1.645,5.21,0.4,7.049
			c4.232,3.802,6.877,9.28,6.877,15.429c-0.02,11.421-9.203,20.669-20.561,20.677c-11.351-0.008-20.54-9.256-20.558-20.677
			c0-6.172,2.675-11.673,6.94-15.484c2.048-1.826,2.235-4.982,0.418-7.044c-1.817-2.062-4.951-2.249-7-0.428
			C13.502,25.837,9.511,34.067,9.515,43.188c0.004,16.943,13.649,30.669,30.482,30.669c16.845,0,30.48-13.726,30.49-30.669
			C70.487,34.104,66.535,25.906,60.285,20.309z M40.088,48.249c2.744,0,4.963-2.235,4.963-4.992V11.139
			c0-2.762-2.22-4.997-4.963-4.997s-4.96,2.235-4.96,4.997v32.118C35.128,46.014,37.345,48.249,40.088,48.249z"/>
	</g>
</g>
</svg>
