<?xml version="1.0" encoding="utf-8"?>
<!-- Generator: Adobe Illustrator 16.0.0, SVG Export Plug-In . SVG Version: 6.00 Build 0)  -->
<!DOCTYPE svg PUBLIC "-//W3C//DTD SVG 1.1//EN" "http://www.w3.org/Graphics/SVG/1.1/DTD/svg11.dtd">
<svg version="1.1" id="Layer_1" xmlns="http://www.w3.org/2000/svg" xmlns:xlink="http://www.w3.org/1999/xlink" x="0px" y="0px"
	 width="500px" height="500px" viewBox="0 0 500 500" enable-background="new 0 0 500 500" xml:space="preserve">
<path fill-rule="evenodd" clip-rule="evenodd" fill="#D81E05" d="M342.94,307.887l-32.109-32.146l0,0l-30.151-30.15
	c4.463-4.463,16.437-16.4,28.701-28.663c16.253-16.256,33.015-33.018,33.597-33.635c4.317-4.281,6.712-10.014,6.676-16.109
	c0-6.096-2.358-11.792-6.676-16.109c-8.526-8.527-23.039-8.237-31.748,0.507l-31.854,31.711v-0.037l-30.552,30.514
	c-9.94-9.905-61.535-61.462-62.37-62.261c-8.635-8.598-23.654-8.598-32.254,0c-8.781,8.744-8.562,22.713,0.507,31.747
	c0.871,0.908,52.357,52.392,62.263,62.334c-10.05,10.013-61.899,61.824-62.333,62.26c-4.318,4.281-6.678,10.014-6.678,16.109
	s2.359,11.827,6.678,16.146c4.172,4.135,9.614,6.422,15.419,6.422c6.095,0,11.899-2.469,16.364-6.931
	c1.016-0.98,43.829-43.685,58.996-58.813l3.409-3.375c4.428,4.427,16.257,16.219,28.7,28.627l18.396,18.396
	c8.562,8.526,14.84,14.84,15.239,15.24c4.28,4.279,10.05,6.675,16.145,6.675s11.829-2.396,16.147-6.675
	C352.192,330.889,352.012,316.922,342.94,307.887z M441.81,133.912c-19.809-33.961-47.13-61.173-81.053-80.983
	c-34.034-19.845-71.731-29.896-111.934-29.896c-40.199,0-77.897,10.051-111.93,29.896c-33.96,19.811-61.246,47.022-81.091,80.983
	c-19.848,33.997-29.897,71.585-29.897,111.787c0,40.202,10.049,77.827,29.897,111.786c19.846,33.924,47.131,61.137,81.091,80.982
	c33.997,19.812,71.694,29.898,111.93,29.898c40.238,0,77.899-10.087,111.934-29.898c33.923-19.846,61.244-47.059,81.053-80.982
	c19.85-33.959,29.935-71.584,29.935-111.786C471.744,205.498,461.659,167.909,441.81,133.912z"/>
</svg>
