<?xml version="1.0" encoding="utf-8"?>
<!-- Generator: Adobe Illustrator 16.0.0, SVG Export Plug-In . SVG Version: 6.00 Build 0)  -->
<!DOCTYPE svg PUBLIC "-//W3C//DTD SVG 1.1//EN" "http://www.w3.org/Graphics/SVG/1.1/DTD/svg11.dtd">
<svg version="1.1" id="Layer_1" xmlns="http://www.w3.org/2000/svg" xmlns:xlink="http://www.w3.org/1999/xlink" x="0px" y="0px"
	 width="40px" height="40px" viewBox="0 0 40 40" enable-background="new 0 0 40 40" xml:space="preserve">
<g>
	<path d="M30.928,17.657V11.32c0-5.81-4.71-10.52-10.52-10.52c-0.072,0-0.125-0.004-0.196-0.002
		c-0.059-0.001-0.132,0.003-0.192,0.003C14.208,0.801,9.5,5.511,9.5,11.32v6.336H5.776v21.759H34.75V17.657H30.928z M23.552,35.427
		h-6.57l1.609-7.035c-0.962-0.571-1.609-1.62-1.609-2.821c0-1.814,1.471-3.285,3.285-3.285c1.814,0,3.285,1.471,3.285,3.285
		c0,1.206-0.651,2.258-1.621,2.829L23.552,35.427z M25.665,17.657H14.763V11.32c0-2.898,2.358-5.255,5.256-5.255
		c0.083,0,0.257-0.004,0.257-0.004s0.088,0.003,0.132,0.003c2.899,0,5.257,2.357,5.257,5.255V17.657z"/>
</g>
</svg>
