<?xml version="1.0" encoding="utf-8"?>
<!-- Generator: Adobe Illustrator 15.0.2, SVG Export Plug-In . SVG Version: 6.00 Build 0)  -->
<!DOCTYPE svg PUBLIC "-//W3C//DTD SVG 1.1//EN" "http://www.w3.org/Graphics/SVG/1.1/DTD/svg11.dtd">
<svg version="1.1" id="Layer_1" xmlns="http://www.w3.org/2000/svg" xmlns:xlink="http://www.w3.org/1999/xlink" x="0px" y="0px"
	 width="500px" height="500px" viewBox="0 0 500 500" enable-background="new 0 0 500 500" xml:space="preserve">
<g>
	<path fill="#FFFFFF" d="M456.982,418.562c-6.468,15.093-23.71,24.948-37.571,32.647c-18.173,9.855-36.646,15.705-57.282,15.705
		c-28.648,0-54.514-11.705-80.693-21.248c-18.785-6.781-36.959-15.093-53.895-25.566C175.183,387.766,112.048,324.627,79.71,272.27
		c-10.474-16.936-18.789-35.109-25.563-53.895c-9.549-26.179-21.251-52.048-21.251-80.69c0-20.636,5.853-39.115,15.708-57.285
		c7.699-13.858,17.555-31.107,32.644-37.575c10.165-4.618,31.723-9.546,42.809-9.546c2.156,0,4.312,0,6.469,0.925
		c6.468,2.156,13.242,17.245,16.323,23.404c9.855,17.555,19.405,35.419,29.566,52.667c4.928,8.006,14.167,17.861,14.167,27.41
		c0,18.786-55.746,46.196-55.746,62.826c0,8.318,7.7,19.095,12.012,26.489c31.106,56.051,69.913,94.86,125.964,125.964
		c7.394,4.312,18.167,12.012,26.485,12.012c16.629,0,44.047-55.746,62.832-55.746c9.543,0,19.398,9.236,27.41,14.168
		c17.242,10.161,35.109,19.711,52.664,29.566c6.155,3.081,21.248,9.855,23.404,16.323c0.925,2.156,0.925,4.312,0.925,6.468
		C466.532,386.841,461.607,408.401,456.982,418.562z"/>
</g>
</svg>
