<?xml version="1.0" encoding="utf-8"?>
<!-- Generator: Adobe Illustrator 15.0.2, SVG Export Plug-In . SVG Version: 6.00 Build 0)  -->
<!DOCTYPE svg PUBLIC "-//W3C//DTD SVG 1.1//EN" "http://www.w3.org/Graphics/SVG/1.1/DTD/svg11.dtd">
<svg version="1.1" id="Layer_1" xmlns="http://www.w3.org/2000/svg" xmlns:xlink="http://www.w3.org/1999/xlink" x="0px" y="0px"
	 width="500px" height="500px" viewBox="0 0 500 500" enable-background="new 0 0 500 500" xml:space="preserve">
<g>
	<g>
		<path fill="#FFFFFF" d="M208.509,62.299v71.56h227.171v-71.56H208.509z M208.509,286.047h227.171v-71.584H208.509V286.047z
			 M208.509,439.054h227.171v-71.607H208.509V439.054z M81.091,62.299c-20.453,0-36.998,15.966-36.998,35.695
			c0,19.753,16.545,35.768,36.998,35.768c20.428,0,36.949-16.015,36.949-35.768C118.04,78.266,101.519,62.299,81.091,62.299z
			 M81.091,214.294c-20.453,0-36.998,15.966-36.998,35.695c0,19.729,16.545,35.72,36.998,35.72c20.428,0,36.949-15.991,36.949-35.72
			C118.04,230.26,101.519,214.294,81.091,214.294z M81.091,366.939c-20.453,0-36.998,16.015-36.998,35.719
			c0,19.705,16.545,35.721,36.998,35.721c20.428,0,36.949-16.016,36.949-35.721C118.04,382.954,101.519,366.939,81.091,366.939z"/>
	</g>
</g>
<path fill="#FFFFFF" d="M208.09,214.299c-20.452,0-36.998,15.966-36.998,35.695c0,19.753,16.545,35.768,36.998,35.768
	c20.429,0,36.949-16.015,36.949-35.768C245.039,230.266,228.519,214.299,208.09,214.299z"/>
<path fill="#FFFFFF" d="M208.09,367.299c-20.452,0-36.998,15.967-36.998,35.695c0,19.753,16.545,35.768,36.998,35.768
	c20.429,0,36.949-16.015,36.949-35.768C245.039,383.266,228.519,367.299,208.09,367.299z"/>
<path fill="#FFFFFF" d="M208.09,62.299c-20.452,0-36.998,15.966-36.998,35.695c0,19.753,16.545,35.768,36.998,35.768
	c20.429,0,36.949-16.015,36.949-35.768C245.039,78.266,228.519,62.299,208.09,62.299z"/>
<path fill="#FFFFFF" d="M436.089,214.299c-20.452,0-36.998,15.966-36.998,35.695c0,19.753,16.546,35.768,36.998,35.768
	c20.429,0,36.949-16.015,36.949-35.768C473.038,230.266,456.518,214.299,436.089,214.299z"/>
<path fill="#FFFFFF" d="M436.089,367.299c-20.452,0-36.998,15.967-36.998,35.695c0,19.753,16.546,35.768,36.998,35.768
	c20.429,0,36.949-16.015,36.949-35.768C473.038,383.266,456.518,367.299,436.089,367.299z"/>
<path fill="#FFFFFF" d="M436.089,62.299c-20.452,0-36.998,15.966-36.998,35.695c0,19.753,16.546,35.768,36.998,35.768
	c20.429,0,36.949-16.015,36.949-35.768C473.038,78.266,456.518,62.299,436.089,62.299z"/>
</svg>
