<?xml version="1.0" encoding="utf-8"?>
<!-- Generator: Adobe Illustrator 15.0.2, SVG Export Plug-In . SVG Version: 6.00 Build 0)  -->
<!DOCTYPE svg PUBLIC "-//W3C//DTD SVG 1.1//EN" "http://www.w3.org/Graphics/SVG/1.1/DTD/svg11.dtd">
<svg version="1.1" id="Layer_1" xmlns="http://www.w3.org/2000/svg" xmlns:xlink="http://www.w3.org/1999/xlink" x="0px" y="0px"
	 width="500px" height="500px" viewBox="0 0 500 500" enable-background="new 0 0 500 500" xml:space="preserve">
<path fill="#FFFFFF" d="M470.297,207.269l-69.728-12.818c-6.724-1.244-9.123-6.924-5.302-12.633l40.003-59.301
	c3.836-5.687,2.991-14.314-1.852-19.179l-38.403-38.359c-4.843-4.858-13.463-5.68-19.194-1.829l-59.241,39.98
	c-5.731,3.851-11.419,1.452-12.634-5.31l-12.84-69.72c-1.259-6.783-7.924-12.315-14.825-12.315h-54.221
	c-6.865,0-13.515,5.532-14.736,12.315l-12.841,69.72c-1.267,6.739-6.946,9.138-12.633,5.31l-59.286-39.98
	c-5.68-3.851-14.352-3.029-19.194,1.829l-38.359,38.359c-4.88,4.865-5.68,13.514-1.896,19.202l40.04,59.278
	c3.836,5.709,1.437,11.389-5.347,12.633l-69.72,12.818c-6.738,1.266-12.256,7.916-12.256,14.781v54.22
	c0,6.902,5.518,13.537,12.256,14.811l69.765,12.826c6.738,1.244,9.138,6.916,5.302,12.618l-40.04,59.286
	c-3.784,5.702-2.984,14.352,1.896,19.18l38.359,38.389c4.843,4.857,13.515,5.687,19.194,1.836l59.286-39.959
	c5.687-3.865,11.366-1.451,12.633,5.288l12.841,69.683c1.222,6.798,7.871,12.337,14.736,12.337h54.221
	c6.901,0,13.566-5.539,14.825-12.337l12.84-69.683c1.215-6.769,6.902-9.153,12.634-5.302l59.241,39.973
	c5.731,3.851,14.352,3.021,19.194-1.836l38.403-38.33c4.843-4.887,5.688-13.536,1.852-19.238l-40.003-59.286
	c-3.865-5.702-1.467-11.374,5.302-12.618l69.728-12.826c6.738-1.273,12.263-7.908,12.263-14.811v-54.22
	C482.56,215.185,477.035,208.535,470.297,207.269z M249.171,333.675c-46.564,0-84.33-37.707-84.33-84.3
	c0-46.571,37.766-84.338,84.33-84.338c46.571,0,84.337,37.767,84.337,84.338C333.508,295.968,295.742,333.675,249.171,333.675z"/>
</svg>
