<?xml version="1.0" encoding="utf-8"?>
<!-- Generator: Adobe Illustrator 16.0.0, SVG Export Plug-In . SVG Version: 6.00 Build 0)  -->
<!DOCTYPE svg PUBLIC "-//W3C//DTD SVG 1.1//EN" "http://www.w3.org/Graphics/SVG/1.1/DTD/svg11.dtd">
<svg version="1.1" id="Layer_1" xmlns="http://www.w3.org/2000/svg" xmlns:xlink="http://www.w3.org/1999/xlink" x="0px" y="0px"
	 width="500px" height="500px" viewBox="0 0 500 500" enable-background="new 0 0 500 500" xml:space="preserve">
<path fill-rule="evenodd" clip-rule="evenodd" fill="#3C763D" d="M372.09,157.287c-5.043-3.96-10.797-4.781-14.68-4.781
	c-7.322,0-14.344,2.802-19.275,7.732L211.207,287.501l-47.047-47.064c-5.994-5.977-12.494-8.891-20.582-9.115
	c-7.582,0-14.193,2.988-18.732,8.442c-4.426,5.416-6.182,12.327-4.855,19.461c1.215,6.126,4.389,11.654,10.029,17.332
	c7.602,7.657,15.223,15.315,22.842,22.936l14.586,14.604c12.234,12.514,20.32,20.918,22.264,23.16
	c6.07,7.06,12.588,10.459,19.871,10.459c6.781,0,13.541-2.728,18.994-7.732c30.818-28.277,59.803-58.085,88.154-87.258
	c12.85-13.224,25.625-26.409,38.512-39.334l16.174-16.248c6.389-6.388,9.451-12.887,9.75-20.47
	C381.391,168.493,378.551,162.33,372.09,157.287z M449.074,134.875c-20.432-35-48.484-63.09-83.484-83.522
	c-35.037-20.433-73.773-30.816-115.236-30.816c-41.406,0-80.18,10.384-115.234,30.816c-34.963,20.433-63.016,48.522-83.449,83.522
	c-20.451,35-30.816,73.773-30.816,115.235c0,41.463,10.365,80.235,30.816,115.236c20.434,35,48.486,63.09,83.449,83.521
	c35.055,20.396,73.811,30.817,115.234,30.817c41.463,0,80.199-10.422,115.236-30.817c35-20.432,63.053-48.521,83.484-83.521
	c20.434-35.001,30.779-73.773,30.779-115.236C479.854,208.648,469.508,169.875,449.074,134.875z"/>
</svg>
