<?xml version="1.0" encoding="utf-8"?>
<!-- Generator: Adobe Illustrator 16.0.0, SVG Export Plug-In . SVG Version: 6.00 Build 0)  -->
<!DOCTYPE svg PUBLIC "-//W3C//DTD SVG 1.1 Tiny//EN" "http://www.w3.org/Graphics/SVG/1.1/DTD/svg11-tiny.dtd">
<svg version="1.1" baseProfile="tiny" id="Layer_1" xmlns="http://www.w3.org/2000/svg" xmlns:xlink="http://www.w3.org/1999/xlink"
	 x="0px" y="0px" width="500px" height="500px" viewBox="0 0 500 500" xml:space="preserve">
<g display="none">
	<path display="inline" fill="#8A6D3B" d="M466.584,413.532c5.429,9.624,5.182,21.469-0.493,31.093
		c-5.676,9.623-16.04,15.546-27.145,15.546H59.915c-11.104,0-21.469-5.923-27.144-15.546c-5.676-9.624-5.922-21.469-0.494-31.093
		L221.792,66.087c5.429-10.117,16.04-16.533,27.638-16.533c11.597,0,22.208,6.416,27.638,16.533L466.584,413.532z M284.965,183.301
		c0-1.48-0.74-3.455-2.468-4.688c-1.479-1.234-3.701-2.714-5.922-2.714h-54.289c-2.221,0-4.442,1.48-5.922,2.714
		c-1.728,1.234-2.468,3.702-2.468,5.182l4.195,112.771c0,3.207,3.702,5.676,8.39,5.676h45.652c4.442,0,8.145-2.469,8.391-5.676
		L284.965,183.301z M281.018,341.971c0-4.441-3.455-8.144-7.896-8.144h-47.379c-4.442,0-7.896,3.701-7.896,8.144v46.886
		c0,4.441,3.455,8.144,7.896,8.144h47.379c4.441,0,7.896-3.701,7.896-8.144V341.971z"/>
</g>
<path fill="#8A6D3B" d="M281.604,387.124l0.143-46.77c0-2.263-0.718-4.237-2.298-5.783c-1.581-1.545-3.413-2.37-5.533-2.37
	l-47.236-0.144c-2.138,0-3.969,0.789-5.55,2.335c-1.561,1.544-2.335,3.447-2.335,5.747l-0.161,46.77
	c0,2.299,0.771,4.238,2.298,5.819c1.582,1.545,3.431,2.335,5.551,2.37l47.218,0.145c2.156,0,4.023-0.79,5.604-2.335
	C280.812,391.363,281.604,389.424,281.604,387.124z M281.387,295.094l4.815-112.973c0-1.976-0.827-3.52-2.444-4.669
	c-2.154-1.833-4.096-2.731-5.891-2.731l-54.133-0.18c-1.814,0-3.791,0.897-5.927,2.694c-1.635,1.15-2.462,2.874-2.48,5.173
	l3.826,112.47c0,1.651,0.826,3.018,2.442,4.094c1.653,1.042,3.648,1.581,5.929,1.617l45.53,0.107c2.3,0,4.238-0.503,5.748-1.58
	C280.382,298.075,281.244,296.71,281.387,295.094z M278.693,65.197l187.905,347.108c5.675,10.382,5.459,20.691-0.612,31.036
	c-2.836,4.741-6.644,8.477-11.494,11.279c-4.849,2.767-10.021,4.131-15.626,4.095l-377.928-1.149
	c-5.586,0-10.777-1.437-15.607-4.238c-4.814-2.802-8.659-6.61-11.423-11.352c-6.019-10.345-6.144-20.69-0.378-31.036L223.572,65.017
	c2.802-5.064,6.68-9.052,11.584-12.034c4.938-2.945,10.274-4.382,16.021-4.347c5.748,0,11.1,1.508,15.983,4.455
	C272.048,56.073,275.928,60.132,278.693,65.197z"/>
</svg>
