<?xml version="1.0" encoding="utf-8"?>
<!-- Generator: Adobe Illustrator 16.0.0, SVG Export Plug-In . SVG Version: 6.00 Build 0)  -->
<!DOCTYPE svg PUBLIC "-//W3C//DTD SVG 1.1//EN" "http://www.w3.org/Graphics/SVG/1.1/DTD/svg11.dtd">
<svg version="1.1" id="Layer_1" xmlns="http://www.w3.org/2000/svg" xmlns:xlink="http://www.w3.org/1999/xlink" x="0px" y="0px"
	 width="19px" height="20.5px" viewBox="0 0 19 20.5" enable-background="new 0 0 19 20.5" xml:space="preserve">
<g>
	<path fill="#D42628" d="M13.122,6.272V5.681c0-0.582-0.367-0.931-0.983-0.931s-0.983,0.349-0.983,0.931v0.592H10.49V5.681
		c0-0.582-0.368-0.931-0.984-0.931S8.522,5.099,8.522,5.681v0.592H7.857V5.681c0-0.582-0.368-0.931-0.983-0.931
		c-0.616,0-0.984,0.349-0.984,0.931v0.592H4.761v9.478h9.479V6.272H13.122z M5.551,11.862h1.702v1.456H5.551V11.862z M13.449,11.6
		h-1.705v-1.588h1.705V11.6z M11.48,11.6H9.63v-1.588h1.85V11.6z M9.367,11.6H7.516v-1.588h1.851V11.6z M7.253,11.6H5.551v-1.588
		h1.702V11.6z M7.516,11.862h1.851v1.456H7.516V11.862z M9.367,13.581v1.379H7.516v-1.379H9.367z M9.63,13.581h1.85v1.379H9.63
		V13.581z M9.63,13.318v-1.456h1.85v1.456H9.63z M11.744,11.862h1.705v1.456h-1.705V11.862z M13.449,8.379v1.37h-1.705v-1.37H13.449
		z M11.682,5.681c0-0.288,0.131-0.403,0.457-0.403c0.324,0,0.456,0.115,0.456,0.403v1.583c0,0.287-0.132,0.404-0.456,0.404
		c-0.326,0-0.457-0.117-0.457-0.404V5.681z M11.48,8.379v1.37H9.63v-1.37H11.48z M9.049,5.681c0-0.288,0.132-0.403,0.457-0.403
		s0.457,0.115,0.457,0.403v1.583c0,0.287-0.132,0.404-0.457,0.404S9.049,7.551,9.049,7.264V5.681z M9.367,8.379v1.37H7.516v-1.37
		H9.367z M6.417,5.681c0-0.288,0.131-0.403,0.457-0.403c0.325,0,0.457,0.115,0.457,0.403v1.583c0,0.287-0.132,0.404-0.457,0.404
		c-0.326,0-0.457-0.117-0.457-0.404V5.681z M7.253,8.379v1.37H5.551v-1.37H7.253z M5.551,13.581h1.702v1.379H5.551V13.581z
		 M11.744,14.96v-1.379h1.705v1.379H11.744z"/>
</g>
</svg>
