<?xml version="1.0" encoding="utf-8"?>
<!-- Generator: Adobe Illustrator 15.0.2, SVG Export Plug-In . SVG Version: 6.00 Build 0)  -->
<!DOCTYPE svg PUBLIC "-//W3C//DTD SVG 1.1//EN" "http://www.w3.org/Graphics/SVG/1.1/DTD/svg11.dtd">
<svg version="1.1" id="Layer_1" xmlns="http://www.w3.org/2000/svg" xmlns:xlink="http://www.w3.org/1999/xlink" x="0px" y="0px"
	 width="500px" height="500px" viewBox="0 0 500 500" enable-background="new 0 0 500 500" xml:space="preserve">
<g enable-background="new    ">
	<path fill="#FFFFFF" d="M480.443,254.062c0,127.053-103.08,230.133-230.133,230.133c-127.053,0-230.133-103.08-230.133-230.133
		S123.257,23.929,250.31,23.929C377.363,23.929,480.443,127.009,480.443,254.062z M325.523,185.741
		c1.498-0.299,2.996-5.693,3.895-6.892c1.799-2.097,4.195-3.296,6.592-4.495c5.096-2.098,10.189-2.697,15.582-3.596
		c5.096-1.199,11.387-1.199,15.283,3.296c-0.898-0.899,6.293-7.191,7.191-7.491c2.697-1.498,7.191-0.899,8.99-3.596
		c0.598-0.899,0.598-6.592,0.598-6.592c-5.094,0.599-6.891-4.195-7.191-8.39c0,0.299-0.598,1.198-1.797,2.397
		c0.299-4.495-5.395-1.199-7.492-1.798c-6.891-1.798-5.992-6.592-8.09-11.687c-1.199-2.697-4.494-3.596-5.693-6.292
		c-1.199-1.798-1.799-5.693-4.494-5.993c-1.799-0.3-5.096,6.292-5.693,5.993c-2.697-1.499-3.896,0.599-5.994,1.798
		c-1.797,1.199-3.297,0.599-5.094,1.498c5.395-1.798-2.396-4.794-5.094-4.195c4.195-1.199,2.098-5.693-0.301-7.791
		c0.6,0,0.9,0,1.498,0c-0.598-2.697-8.988-5.094-11.686-6.892s-17.08-4.794-20.076-2.997c-3.596,2.098,0.898,8.091,0.898,11.087
		c0.299,3.596-3.596,4.495-3.596,7.491c0,5.094,9.588,4.195,7.191,11.087c-1.498,4.195-7.191,5.094-9.588,8.39
		c-2.398,2.997,0.299,8.391,2.695,10.488c2.398,1.798-4.195,4.794-5.094,5.394c-5.094,2.397-8.988-5.094-10.188-9.589
		c-0.898-3.296-1.199-7.192-4.795-8.99c-1.797-0.599-7.49-1.498-8.689,0.3c-1.799-4.495-8.092-6.292-12.285-7.791
		c-5.994-2.098-11.088-2.098-17.38-1.199c2.098-0.299-0.6-9.589-5.693-8.09c1.498-2.997,0.898-6.293,1.498-9.29
		c0.6-2.397,1.798-4.794,3.596-6.892c0.6-1.199,7.191-8.091,5.094-8.391c5.095,0.6,10.789,0.899,14.984-3.296
		c2.695-2.697,3.895-7.192,6.592-10.188c3.895-4.495,8.689,1.199,12.885,1.499c5.992,0.3,5.693-6.293,2.396-9.289
		c3.896,0.299,0.6-6.892-1.498-7.791c-2.697-0.899-12.885,1.798-7.49,3.896c-1.199-0.6-8.391,14.383-12.586,6.892
		c-1.199-1.498-1.799-7.791-4.494-8.09c-2.398,0-3.896,2.697-4.795,4.495c1.498-3.896-8.39-6.592-10.487-6.892
		c4.494-2.996,0.898-6.292-2.397-8.09c-2.397-1.499-9.889-2.697-11.986-0.3c-5.693,6.892,5.993,7.791,8.989,9.589
		c0.899,0.599,4.495,2.697,2.397,4.195c-1.798,0.899-7.191,2.397-7.791,3.596c-1.798,2.697,2.097,5.693-0.6,8.39
		c-2.697-2.697-2.697-7.191-4.794-10.188c2.697,3.296-10.787,1.498-10.488,1.498c-4.495,0-11.687,2.997-14.982-1.498
		c-0.6-1.199-0.6-8.091,1.199-6.592c-2.697-2.098-4.495-4.195-6.293-5.394c-9.889,3.296-19.178,7.492-28.167,12.286
		c1.199,0.299,2.098,0.299,3.596-0.3c2.397-0.899,4.495-2.397,6.892-3.596c2.997-1.199,9.29-4.794,12.585-2.098
		c0.3-0.6,1.199-1.199,1.499-1.499c2.098,2.397,4.195,4.794,5.993,7.492c-2.397-1.199-6.293-0.6-8.99-0.3
		c-2.098,0.599-5.693,1.199-6.592,3.596c0.899,1.499,2.098,3.896,1.498,5.394c-3.896-2.697-6.892-7.192-12.286-7.791
		c-2.397,0-4.794,0-6.592,0.299c-28.767,15.882-53.039,38.955-70.418,66.523c1.199,1.199,2.397,2.098,3.596,2.397
		c2.996,0.899,0,9.589,5.693,5.094c1.798,1.499,2.098,3.596,0.899,5.693c0.299-0.3,12.286,7.491,13.185,8.091
		c2.098,1.798,5.394,3.896,6.292,6.292c0.6,2.098-1.198,4.495-2.996,5.394c-0.3-0.6-4.794-5.094-5.394-3.896
		c-0.899,1.498,0,9.589,3.296,9.289c-4.794,0.3-2.697,18.878-3.896,22.474c0,0.3,0.599,0.3,0.599,0.3
		c-0.899,3.596,2.098,17.68,8.091,16.182c-3.896,0.898,6.892,14.683,8.39,15.582c3.896,2.696,8.39,4.494,11.087,8.39
		c2.997,4.195,2.997,10.488,7.192,13.784c-1.199,3.596,6.292,7.791,5.993,12.885c-0.6,0.3-0.899,0.3-1.499,0.6
		c1.499,4.195,7.192,4.195,9.29,8.091c1.198,2.396,0,8.091,3.895,6.892c0.6-6.592-3.895-13.185-7.191-18.578
		c-1.798-2.997-3.596-5.693-5.094-8.69c-1.498-2.696-1.798-5.993-2.997-8.989c1.199,0.3,7.791,2.697,7.192,3.596
		c-2.397,5.993,9.589,16.481,12.885,20.377c0.899,0.898,7.791,9.888,4.195,9.888c3.896,0,9.289,5.993,11.087,8.99
		c2.697,4.494,2.097,10.188,3.896,14.982c1.798,5.993,10.188,8.689,14.982,11.387c4.195,2.098,7.791,5.094,11.986,6.593
		c6.293,2.396,7.791,0.299,13.185-0.6c7.791-1.199,8.689,7.491,14.982,10.787c3.896,2.098,12.287,5.095,16.48,3.296
		c-1.797,0.6,6.293,12.886,6.893,13.784c2.697,3.596,7.791,5.394,10.787,8.99c0.9-0.6,1.799-1.499,2.098-2.697
		c-1.197,3.296,4.496,9.589,7.492,8.989c3.295-0.599,4.195-7.191,4.195-9.589c-5.994,2.997-11.387,0.6-14.684-5.394
		c-0.6-1.498-5.395-9.889-1.199-9.889c5.693,0,1.799-4.494,1.199-8.689s-4.795-6.893-6.893-10.488
		c-1.797,3.596-7.791,2.697-9.588-0.3c0,0.899-0.898,2.397-0.898,3.597c-1.498,0-2.998,0.299-4.496-0.3
		c0.6-3.596,0.9-8.091,1.799-11.986c1.498-5.394,11.387-15.882-1.498-15.282c-4.496,0.3-6.293,2.098-7.792,5.993
		c-1.498,3.596-0.899,6.892-5.094,8.689c-2.697,1.199-11.687,0.6-14.384-0.898c-5.693-3.297-9.589-13.784-9.589-19.777
		c-0.299-8.091,3.896-15.282,0-22.773c1.798-1.498,3.596-4.495,5.693-5.993c1.798-1.198,3.896,0.899,4.794-2.697
		c-0.899-0.599-2.097-1.798-2.397-1.798c4.495,2.098,12.885-2.996,16.78,0c2.397,1.798,5.094,2.397,6.593-0.599
		c0.3-0.899-2.098-4.495-0.899-6.893c0.899,5.095,4.195,5.993,8.69,2.697c1.799,1.798,6.592,1.198,9.889,2.996
		c3.297,2.098,3.895,5.395,7.791,0.899c2.396,3.596,2.697,3.596,3.596,7.191c0.898,3.296,2.697,11.687,5.693,13.185
		c6.293,3.896,4.795-6.592,4.195-10.188c-0.299-0.3-0.299-10.188-0.6-10.188c-9.588-2.098-5.992-9.589-0.6-14.683
		c0.9-0.6,7.791-2.997,10.787-5.395c2.697-2.396,5.994-6.592,4.496-10.487c1.498,0,2.697-1.199,3.295-2.697
		c-0.898-0.3-4.494-3.296-5.094-2.996c2.098-1.199,1.799-2.997,0.6-4.795c2.996-1.798,1.498-5.094,4.494-6.292
		c3.297,4.494,9.889-0.6,6.594-4.195c2.996-4.195,9.889-2.098,11.686-5.993c4.494,1.198,1.199-4.495,3.596-7.791
		c2.098-2.697,5.693-2.697,8.391-4.195c0,0.3,7.492-4.195,5.094-4.495c5.094,0.599,15.283-4.794,7.492-9.289
		c1.197-2.697-2.697-3.896-5.395-4.495c2.098-0.599,4.795,0.6,6.592-0.599c3.896-2.697,1.199-3.896-2.098-4.794
		c-4.193-1.199-9.588,1.498-12.885,3.596C330.018,181.845,328.52,185.142,325.523,185.741z M388.75,386.208
		c-1.799-1.798-5.096-1.198-7.492-2.397c-2.396-0.898-4.195-1.798-7.191-2.396c0.6-5.993-5.992-8.091-10.188-11.088
		c-3.896-2.996-6.293-6.292-11.986-5.094c-0.6,0.3-6.594,2.397-5.395,3.596c-3.895-3.296-5.693-5.094-10.787-6.592
		c-4.795-1.499-8.09-7.491-12.885-2.098c-2.398,2.396-1.199,5.993-2.398,8.39c-3.895-3.296,3.598-7.191,0.6-10.787
		c-3.596-4.195-9.889,2.697-12.885,4.495c-1.797,1.498-3.895,2.097-5.094,3.896c-1.498,2.097-2.098,4.794-3.297,6.892
		c-0.898-2.397-5.992-1.798-6.291-3.596c1.197,7.191,1.197,14.683,2.695,21.874c0.9,4.195,0,11.088-3.596,14.384
		s-8.09,6.892-8.689,11.986c-0.6,3.596,0.299,6.892,3.596,7.791c0.299,4.494-4.795,7.791-4.494,12.585c0,0.3,0.299,3.296,0.6,4.795
		C324.623,435.65,361.182,415.274,388.75,386.208z"/>
</g>
</svg>
