<?xml version="1.0" encoding="utf-8"?>
<!-- Generator: Adobe Illustrator 15.0.2, SVG Export Plug-In . SVG Version: 6.00 Build 0)  -->
<!DOCTYPE svg PUBLIC "-//W3C//DTD SVG 1.1//EN" "http://www.w3.org/Graphics/SVG/1.1/DTD/svg11.dtd">
<svg version="1.1" id="Layer_1" xmlns="http://www.w3.org/2000/svg" xmlns:xlink="http://www.w3.org/1999/xlink" x="0px" y="0px"
	 width="500px" height="500px" viewBox="0 0 500 500" enable-background="new 0 0 500 500" xml:space="preserve">
<g>
	<g>
		<path fill-rule="evenodd" clip-rule="evenodd" fill="#FFFFFF" d="M468.815,431.847c0,20.157-16.368,36.518-36.525,36.518H67.195
			c-20.158,0-36.506-16.36-36.506-36.518V66.764c0-20.149,16.348-36.51,36.506-36.51H432.29c20.157,0,36.525,16.36,36.525,36.51
			V431.847z"/>
		<path fill="#231F20" d="M432.29,30.254c20.157,0,36.525,16.36,36.525,36.51v365.083c0,20.157-16.368,36.518-36.525,36.518H67.195
			c-20.158,0-36.506-16.36-36.506-36.518V66.764c0-20.149,16.348-36.51,36.506-36.51H432.29 M432.29,22.527H67.195
			c-24.393,0-44.233,19.845-44.233,44.237v365.083c0,24.4,19.841,44.245,44.233,44.245H432.29c24.399,0,44.253-19.845,44.253-44.245
			V66.764C476.543,42.372,456.689,22.527,432.29,22.527L432.29,22.527z"/>
	</g>
</g>
<g>
	<g>
		<path fill="#231F20" d="M433.009,80.538c-12.345,0-22.407,10.071-22.407,22.431c0,12.353,10.062,22.4,22.407,22.4
			c12.337,0,22.368-10.047,22.368-22.4C455.377,90.609,445.346,80.538,433.009,80.538z M433.009,122.563
			c-10.798,0-19.595-8.781-19.595-19.595c0-10.821,8.797-19.603,19.595-19.603c10.806,0,19.587,8.782,19.587,19.603
			C452.596,113.782,443.814,122.563,433.009,122.563z"/>
		<path fill="#231F20" d="M441.33,114.61c-0.078-1.672-0.109-3.813-0.172-5.547c-0.141-3.844-1.57-5.352-4.29-5.641v-0.031
			c3.001-0.469,4.571-3.188,4.571-6.742c0-5.125-3.103-7.04-6.931-7.04h-9.673v27.385h4.376v-11.899h3.562
			c2.984,0,3.922,1.312,3.984,4.297c0.078,1.984,0.031,3.532,0.188,5.172c0.109,1.078,0.312,1.898,0.734,2.43h4.946
			C442.033,116.603,441.393,115.954,441.33,114.61z M432.712,101.797h-3.5v-8.891h3.703c2.891,0,4.141,1.539,4.141,4.461
			C437.056,100.117,435.509,101.797,432.712,101.797z"/>
	</g>
</g>
<path fill="#231F20" d="M95.591,276.33c-6.149-0.586-10.344,1.359-10.344,1.359l-0.023-56.511l20.657-4.875v8.867
	c0,0,5.605-12.368,20.419-15.813c16.356-3.836,21.615,5.712,21.615,19.369l-0.008,56.269l-21.755,5.109l-0.023-53.214
	c0-8.305-3.902-9.978-8.582-8.969c-6.188,1.406-10.536,8.352-10.536,17.102v36.572C107.01,281.596,102.885,277.01,95.591,276.33z"/>
<path fill="#231F20" d="M275.305,254.876l-0.023-78.426l20.47-4.875l-0.023,10.29c0,0,5.329-13.517,17.634-16.642
	c3.797-0.969,5.688-0.391,5.688-0.391v20.009c0,0-4.625-0.195-10.727,2.227c-7.548,3.016-11.368,9.508-11.368,19.47v43.315
	L275.305,254.876L275.305,254.876z"/>
<path fill="#231F20" d="M167.384,280.385c0,0-3.32-4.977-3.32-22.642c0-7.094,0-39.049,0-39.049l-10.54,2.484v-16.071l10.54-2.5
	v-17.509l21.791-5.141l-0.031,17.517l15.395-3.633v16.071l-15.395,3.625c0,0,0,32.002,0,39.768c0,18.118,4.809,21.571,4.809,21.571
	L167.384,280.385L167.384,280.385z"/>
<path fill="#231F20" d="M203.504,233.719c0-13.946,1.992-24.104,6.266-31.908c5.062-9.282,13.388-15.321,25.501-18.071
	c23.884-5.43,32.487,8.711,32.159,27.673c-0.117,6.75-0.102,10.071-0.102,10.071l-42.058,9.883v0.68
	c0,13.274,2.762,19.525,11.137,17.775c7.278-1.547,9.286-6.071,9.852-11.696c0.09-0.906,0.141-3.211,0.141-3.211l19.724-4.711
	c0,0,0.047,1.586,0,3.391c-0.172,7.547-2.359,26.22-29.759,32.697C210.41,272.463,203.504,256.579,203.504,233.719z
	 M236.138,198.342c-6.973,1.594-10.641,8.43-10.793,19.767l21.153-5.04c0.055-0.523,0.062-1.641,0.062-3.415
	C246.521,201.1,243.881,196.576,236.138,198.342z"/>
<path fill="#231F20" d="M392.757,187.864c-0.812-23.892,5.375-42.854,32.001-48.894c17.018-3.828,23.463,0.562,26.721,4.836
	c3.148,4.055,4.352,9.555,4.352,17.298v1.398l-20.821,4.938c0,0,0-2.805,0-2.914c0-9.134-2.531-12.587-9.172-10.931
	c-7.876,1.984-11.063,9.469-11.063,24.345c0,5.282,0,6.235,0,6.961c0,15.142,2.078,22.04,11.173,20.142
	c7.875-1.648,8.953-8.579,9.078-14.634c0.023-0.93,0.062-3.984,0.062-3.984l20.829-4.945c0,0,0.031,1.555,0.031,3.25
	c-0.07,19.845-10.531,32.322-30.103,36.893C398.835,227.953,393.569,212.35,392.757,187.864z"/>
<path fill="#231F20" d="M320.658,221.327c0-18.188,10.642-23.923,26.666-30.557c14.399-5.969,14.712-8.93,14.79-14.125
	c0.062-4.368-1.961-8.063-9.11-6.227c-6.609,1.633-8.352,6.43-8.695,10.259c-0.18,2.055-0.148,4.016-0.148,4.016l-20.188,4.789
	c0,0-0.32-6.258,1.375-11.969c3.266-10.868,12.845-18.173,29.376-21.994c21.494-4.977,28.658,4.461,28.689,19.134
	c0,0-0.016,19.892-0.016,34.775c0,16.79,3.141,19.251,3.141,19.251l-19.845,4.672c0,0-1.859-3.813-2.641-7.11
	c0,0-4.375,10.938-19.353,14.462C329.003,244.43,320.658,234.672,320.658,221.327z M361.974,196.498c0,0-4.141,3.024-10.563,6.172
	c-6.609,3.242-9.578,7.227-9.578,13.345c0,5.328,3.273,8.812,9.266,7.32c6.407-1.602,10.868-7.586,10.868-15.907
	C361.966,202.654,361.974,197.959,361.974,196.498L361.974,196.498z"/>
<path fill-rule="evenodd" clip-rule="evenodd" fill="#231F20" d="M113.975,310.332l34.748,23.635
	c4.801,3.203,7.977,8.688,7.977,14.898c0,1.07-0.031,85.146-0.031,103.186c-8.579,0.016-28.768,0.031-39.455,0.031
	c-20.822,0-37.702-16.906-37.702-37.705l-0.023-117.568c0-7.462,5.282-13.463,13.559-13.541c7.958-0.07,13.54,6.235,13.54,13.572
	c0,7.32,0.047,67.44,0.047,67.44c0,2.001,1.23,3.681,3.668,3.649c2.446-0.07,3.653-1.711,3.653-4.142
	C113.956,361.351,113.975,310.332,113.975,310.332z"/>
<path fill="#231F20" d="M43.647,317.473c-1.208,1.86-1.915,4.118-1.915,6.532c0,6.594,5.356,11.946,11.981,11.946
	c0.824,0,1.648-0.086,2.43-0.258c1.543-0.305,9.423-2.117,16.399-3.789V310.66L43.647,317.473z"/>
<path fill="#231F20" d="M43.647,346.498c-1.208,1.891-1.915,4.117-1.915,6.517c0,6.625,5.356,11.977,11.981,11.977
	c0.824,0,1.648-0.078,2.43-0.234c1.543-0.328,9.423-2.109,16.399-3.836v-21.204L43.647,346.498z"/>
<path fill="#231F20" d="M43.647,375.562c-1.208,1.875-1.915,4.094-1.915,6.484c0,6.634,5.356,11.993,11.981,11.993
	c0.824,0,1.648-0.086,2.43-0.273c1.543-0.328,9.423-2.094,16.399-3.773v-21.259L43.647,375.562z"/>
<path fill="#231F20" d="M49.429,308.16V182.317l22.942-5.438v125.843L49.429,308.16L49.429,308.16z"/>
</svg>
