<?xml version="1.0" encoding="utf-8"?>
<!-- Generator: Adobe Illustrator 16.0.0, SVG Export Plug-In . SVG Version: 6.00 Build 0)  -->
<!DOCTYPE svg PUBLIC "-//W3C//DTD SVG 1.1//EN" "http://www.w3.org/Graphics/SVG/1.1/DTD/svg11.dtd">
<svg version="1.1" id="Layer_1" xmlns="http://www.w3.org/2000/svg" xmlns:xlink="http://www.w3.org/1999/xlink" x="0px" y="0px"
	 width="500px" height="500px" viewBox="0 0 500 500" enable-background="new 0 0 500 500" xml:space="preserve">
<rect x="70.5" y="158.5" fill="#FFDD00" width="349.334" height="174"/>
<g>
	<path fill="#181713" d="M442.842,24.711H57.271c-17.753,0-32.131,14.401-32.131,32.155v385.569
		c0,17.754,14.377,32.153,32.131,32.153h385.571c17.754,0,32.131-14.399,32.131-32.153V56.866
		C474.973,39.111,460.596,24.711,442.842,24.711z M119.007,305.967L94.479,190.257h6.821l24.575,115.709H119.007z M137.679,305.967
		l-24.53-115.709h6.823l24.574,115.709H137.679z M277.594,305.967H227.87l-10.725-74.919h-0.344l-10.704,74.919h-49.746
		l-24.964-115.709h41.018l9.761,72.852h0.298l10.771-72.852h47.449l10.725,72.852h0.345l9.785-72.852h8.771v76.895
		c0,11.46,3.399,20.486,9.739,27.262L277.594,305.967z M380.258,267.152c0,27.95-20.053,41.891-54.962,41.891
		c-18.463,0-32.683-3.948-42.029-11.737l23.106-107.048h9.761v75.034c0,9.118,4.341,12.654,9.162,12.654
		c4.777,0,9.142-3.536,9.142-12.654v-75.034h45.82V267.152L380.258,267.152z M392.591,201.42c-1.768,0-2.988-0.689-2.963-2.619
		h1.722c-0.068,0.874,0.392,1.424,1.264,1.424c0.665,0,1.538-0.184,1.538-1.033c0-0.873-1.103-0.942-1.769-1.125
		c-1.033-0.253-2.525-0.758-2.525-2.113c0-1.746,1.608-2.502,3.192-2.502c1.472,0,2.665,0.781,2.665,2.365h-1.608
		c-0.068-0.827-0.458-1.194-1.288-1.194c-0.596,0-1.214,0.298-1.214,0.987c0,0.851,0.757,0.965,1.377,1.079
		c1.17,0.298,2.893,0.621,2.893,2.159C395.874,200.753,394.221,201.42,392.591,201.42z M405.682,201.282h-1.538v-6.615h-0.046
		l-2.136,6.615h-1.379l-2.021-6.615v6.615h-1.584v-7.694h2.732l1.608,5.558l1.744-5.558h2.619V201.282L405.682,201.282z"/>
	<path fill="#FFFFFF" d="M270.186,190.257v76.895c0,11.46,3.397,20.486,9.737,27.262l22.51-104.157H270.186z"/>
</g>
</svg>
